<mxfile host="app.diagrams.net" agent="Mozilla/5.0 (Windows NT 10.0; Win64; x64) AppleWebKit/537.36 (KHTML, like Gecko) Chrome/128.0.0.0 Safari/537.36 OPR/114.0.0.0" version="25.0.3">
  <diagram id="C5RBs43oDa-KdzZeNtuy" name="Page-1">
    <mxGraphModel dx="2970" dy="2381" grid="1" gridSize="10" guides="1" tooltips="1" connect="1" arrows="1" fold="1" page="1" pageScale="1" pageWidth="827" pageHeight="1169" math="0" shadow="0">
      <root>
        <mxCell id="WIyWlLk6GJQsqaUBKTNV-0" />
        <mxCell id="WIyWlLk6GJQsqaUBKTNV-1" parent="WIyWlLk6GJQsqaUBKTNV-0" />
        <mxCell id="eHkrq_CjXB_8C5PsphUJ-1" style="edgeStyle=orthogonalEdgeStyle;rounded=0;orthogonalLoop=1;jettySize=auto;html=1;exitX=0;exitY=0;exitDx=0;exitDy=0;" edge="1" parent="WIyWlLk6GJQsqaUBKTNV-1" source="eHkrq_CjXB_8C5PsphUJ-0" target="eHkrq_CjXB_8C5PsphUJ-2">
          <mxGeometry relative="1" as="geometry">
            <mxPoint x="180" y="10" as="targetPoint" />
            <Array as="points">
              <mxPoint x="260" y="30" />
              <mxPoint x="221" y="30" />
              <mxPoint x="170" y="31" />
            </Array>
          </mxGeometry>
        </mxCell>
        <mxCell id="eHkrq_CjXB_8C5PsphUJ-3" style="edgeStyle=orthogonalEdgeStyle;rounded=0;orthogonalLoop=1;jettySize=auto;html=1;exitX=0.25;exitY=0;exitDx=0;exitDy=0;" edge="1" parent="WIyWlLk6GJQsqaUBKTNV-1" source="eHkrq_CjXB_8C5PsphUJ-0">
          <mxGeometry relative="1" as="geometry">
            <mxPoint x="250" y="10" as="targetPoint" />
          </mxGeometry>
        </mxCell>
        <mxCell id="eHkrq_CjXB_8C5PsphUJ-5" style="edgeStyle=orthogonalEdgeStyle;rounded=0;orthogonalLoop=1;jettySize=auto;html=1;exitX=0.5;exitY=0;exitDx=0;exitDy=0;" edge="1" parent="WIyWlLk6GJQsqaUBKTNV-1" source="eHkrq_CjXB_8C5PsphUJ-0">
          <mxGeometry relative="1" as="geometry">
            <mxPoint x="320" y="-90" as="targetPoint" />
          </mxGeometry>
        </mxCell>
        <mxCell id="eHkrq_CjXB_8C5PsphUJ-7" style="edgeStyle=orthogonalEdgeStyle;rounded=0;orthogonalLoop=1;jettySize=auto;html=1;exitX=0.75;exitY=0;exitDx=0;exitDy=0;entryX=0.5;entryY=1;entryDx=0;entryDy=0;" edge="1" parent="WIyWlLk6GJQsqaUBKTNV-1" source="eHkrq_CjXB_8C5PsphUJ-0" target="eHkrq_CjXB_8C5PsphUJ-8">
          <mxGeometry relative="1" as="geometry">
            <mxPoint x="390" y="20.000000000000227" as="targetPoint" />
          </mxGeometry>
        </mxCell>
        <mxCell id="eHkrq_CjXB_8C5PsphUJ-9" style="edgeStyle=orthogonalEdgeStyle;rounded=0;orthogonalLoop=1;jettySize=auto;html=1;exitX=1;exitY=0;exitDx=0;exitDy=0;" edge="1" parent="WIyWlLk6GJQsqaUBKTNV-1">
          <mxGeometry relative="1" as="geometry">
            <mxPoint x="470" y="2.2737367544323206e-13" as="targetPoint" />
            <mxPoint x="370" y="50" as="sourcePoint" />
          </mxGeometry>
        </mxCell>
        <mxCell id="eHkrq_CjXB_8C5PsphUJ-13" style="edgeStyle=orthogonalEdgeStyle;rounded=0;orthogonalLoop=1;jettySize=auto;html=1;exitX=1;exitY=0.25;exitDx=0;exitDy=0;" edge="1" parent="WIyWlLk6GJQsqaUBKTNV-1" source="eHkrq_CjXB_8C5PsphUJ-0">
          <mxGeometry relative="1" as="geometry">
            <mxPoint x="490" y="65" as="targetPoint" />
          </mxGeometry>
        </mxCell>
        <mxCell id="eHkrq_CjXB_8C5PsphUJ-15" style="edgeStyle=orthogonalEdgeStyle;rounded=0;orthogonalLoop=1;jettySize=auto;html=1;exitX=1;exitY=0.75;exitDx=0;exitDy=0;" edge="1" parent="WIyWlLk6GJQsqaUBKTNV-1" source="eHkrq_CjXB_8C5PsphUJ-0">
          <mxGeometry relative="1" as="geometry">
            <mxPoint x="410" y="95.28571428571422" as="targetPoint" />
          </mxGeometry>
        </mxCell>
        <mxCell id="eHkrq_CjXB_8C5PsphUJ-17" style="edgeStyle=orthogonalEdgeStyle;rounded=0;orthogonalLoop=1;jettySize=auto;html=1;exitX=0;exitY=0.25;exitDx=0;exitDy=0;" edge="1" parent="WIyWlLk6GJQsqaUBKTNV-1" source="eHkrq_CjXB_8C5PsphUJ-0">
          <mxGeometry relative="1" as="geometry">
            <mxPoint x="150" y="65" as="targetPoint" />
          </mxGeometry>
        </mxCell>
        <mxCell id="eHkrq_CjXB_8C5PsphUJ-19" style="edgeStyle=orthogonalEdgeStyle;rounded=0;orthogonalLoop=1;jettySize=auto;html=1;exitX=0;exitY=0.75;exitDx=0;exitDy=0;" edge="1" parent="WIyWlLk6GJQsqaUBKTNV-1" source="eHkrq_CjXB_8C5PsphUJ-0">
          <mxGeometry relative="1" as="geometry">
            <mxPoint x="230" y="95.28571428571422" as="targetPoint" />
          </mxGeometry>
        </mxCell>
        <mxCell id="eHkrq_CjXB_8C5PsphUJ-21" style="edgeStyle=orthogonalEdgeStyle;rounded=0;orthogonalLoop=1;jettySize=auto;html=1;exitX=1;exitY=1;exitDx=0;exitDy=0;" edge="1" parent="WIyWlLk6GJQsqaUBKTNV-1" source="eHkrq_CjXB_8C5PsphUJ-0">
          <mxGeometry relative="1" as="geometry">
            <mxPoint x="540" y="150" as="targetPoint" />
          </mxGeometry>
        </mxCell>
        <mxCell id="eHkrq_CjXB_8C5PsphUJ-139" style="edgeStyle=orthogonalEdgeStyle;rounded=0;orthogonalLoop=1;jettySize=auto;html=1;exitX=0;exitY=1;exitDx=0;exitDy=0;shape=link;" edge="1" parent="WIyWlLk6GJQsqaUBKTNV-1" source="eHkrq_CjXB_8C5PsphUJ-0">
          <mxGeometry relative="1" as="geometry">
            <mxPoint x="80" y="220" as="targetPoint" />
          </mxGeometry>
        </mxCell>
        <mxCell id="eHkrq_CjXB_8C5PsphUJ-0" value="PET" style="rounded=0;whiteSpace=wrap;html=1;fillColor=#d5e8d4;strokeColor=#82b366;" vertex="1" parent="WIyWlLk6GJQsqaUBKTNV-1">
          <mxGeometry x="260" y="50" width="120" height="60" as="geometry" />
        </mxCell>
        <mxCell id="eHkrq_CjXB_8C5PsphUJ-2" value="&lt;u&gt;pet_id&lt;/u&gt;" style="ellipse;whiteSpace=wrap;html=1;aspect=fixed;fillColor=#e1d5e7;strokeColor=#9673a6;" vertex="1" parent="WIyWlLk6GJQsqaUBKTNV-1">
          <mxGeometry x="120" y="-60" width="80" height="80" as="geometry" />
        </mxCell>
        <mxCell id="eHkrq_CjXB_8C5PsphUJ-4" value="name" style="ellipse;whiteSpace=wrap;html=1;aspect=fixed;fillColor=#dae8fc;strokeColor=#6c8ebf;" vertex="1" parent="WIyWlLk6GJQsqaUBKTNV-1">
          <mxGeometry x="210" y="-70" width="80" height="80" as="geometry" />
        </mxCell>
        <mxCell id="eHkrq_CjXB_8C5PsphUJ-6" value="species" style="ellipse;whiteSpace=wrap;html=1;aspect=fixed;fillColor=#dae8fc;strokeColor=#6c8ebf;" vertex="1" parent="WIyWlLk6GJQsqaUBKTNV-1">
          <mxGeometry x="280" y="-150" width="80" height="80" as="geometry" />
        </mxCell>
        <mxCell id="eHkrq_CjXB_8C5PsphUJ-8" value="breed" style="ellipse;whiteSpace=wrap;html=1;aspect=fixed;fillColor=#dae8fc;strokeColor=#6c8ebf;" vertex="1" parent="WIyWlLk6GJQsqaUBKTNV-1">
          <mxGeometry x="340" y="-70" width="80" height="80" as="geometry" />
        </mxCell>
        <mxCell id="eHkrq_CjXB_8C5PsphUJ-10" value="age" style="ellipse;whiteSpace=wrap;html=1;aspect=fixed;fillColor=#dae8fc;strokeColor=#6c8ebf;" vertex="1" parent="WIyWlLk6GJQsqaUBKTNV-1">
          <mxGeometry x="430" y="-70" width="80" height="80" as="geometry" />
        </mxCell>
        <mxCell id="eHkrq_CjXB_8C5PsphUJ-14" value="sex" style="ellipse;whiteSpace=wrap;html=1;aspect=fixed;fillColor=#dae8fc;strokeColor=#6c8ebf;" vertex="1" parent="WIyWlLk6GJQsqaUBKTNV-1">
          <mxGeometry x="480" y="20" width="80" height="80" as="geometry" />
        </mxCell>
        <mxCell id="eHkrq_CjXB_8C5PsphUJ-16" value="Adopted" style="ellipse;whiteSpace=wrap;html=1;aspect=fixed;fillColor=#dae8fc;strokeColor=#6c8ebf;" vertex="1" parent="WIyWlLk6GJQsqaUBKTNV-1">
          <mxGeometry x="400" y="70" width="80" height="80" as="geometry" />
        </mxCell>
        <mxCell id="eHkrq_CjXB_8C5PsphUJ-18" value="claws" style="ellipse;whiteSpace=wrap;html=1;aspect=fixed;fillColor=#dae8fc;strokeColor=#6c8ebf;" vertex="1" parent="WIyWlLk6GJQsqaUBKTNV-1">
          <mxGeometry x="80" y="20" width="80" height="80" as="geometry" />
        </mxCell>
        <mxCell id="eHkrq_CjXB_8C5PsphUJ-20" value="adoption_fee" style="ellipse;whiteSpace=wrap;html=1;aspect=fixed;fillColor=#dae8fc;strokeColor=#6c8ebf;" vertex="1" parent="WIyWlLk6GJQsqaUBKTNV-1">
          <mxGeometry x="160" y="60" width="80" height="80" as="geometry" />
        </mxCell>
        <mxCell id="eHkrq_CjXB_8C5PsphUJ-22" value="description" style="ellipse;whiteSpace=wrap;html=1;aspect=fixed;fillColor=#dae8fc;strokeColor=#6c8ebf;" vertex="1" parent="WIyWlLk6GJQsqaUBKTNV-1">
          <mxGeometry x="530" y="90" width="80" height="80" as="geometry" />
        </mxCell>
        <mxCell id="eHkrq_CjXB_8C5PsphUJ-24" style="edgeStyle=orthogonalEdgeStyle;rounded=0;orthogonalLoop=1;jettySize=auto;html=1;exitX=0.5;exitY=0;exitDx=0;exitDy=0;" edge="1" parent="WIyWlLk6GJQsqaUBKTNV-1" source="eHkrq_CjXB_8C5PsphUJ-23">
          <mxGeometry relative="1" as="geometry">
            <mxPoint x="-100.16666666666652" y="20" as="targetPoint" />
          </mxGeometry>
        </mxCell>
        <mxCell id="eHkrq_CjXB_8C5PsphUJ-26" style="edgeStyle=orthogonalEdgeStyle;rounded=0;orthogonalLoop=1;jettySize=auto;html=1;exitX=0.25;exitY=0;exitDx=0;exitDy=0;" edge="1" parent="WIyWlLk6GJQsqaUBKTNV-1" source="eHkrq_CjXB_8C5PsphUJ-23">
          <mxGeometry relative="1" as="geometry">
            <mxPoint x="-180" y="20" as="targetPoint" />
          </mxGeometry>
        </mxCell>
        <mxCell id="eHkrq_CjXB_8C5PsphUJ-28" style="edgeStyle=orthogonalEdgeStyle;rounded=0;orthogonalLoop=1;jettySize=auto;html=1;exitX=0;exitY=0.5;exitDx=0;exitDy=0;" edge="1" parent="WIyWlLk6GJQsqaUBKTNV-1" source="eHkrq_CjXB_8C5PsphUJ-23">
          <mxGeometry relative="1" as="geometry">
            <mxPoint x="-240" y="89.83333333333348" as="targetPoint" />
          </mxGeometry>
        </mxCell>
        <mxCell id="eHkrq_CjXB_8C5PsphUJ-30" style="edgeStyle=orthogonalEdgeStyle;rounded=0;orthogonalLoop=1;jettySize=auto;html=1;exitX=0;exitY=1;exitDx=0;exitDy=0;" edge="1" parent="WIyWlLk6GJQsqaUBKTNV-1" source="eHkrq_CjXB_8C5PsphUJ-23">
          <mxGeometry relative="1" as="geometry">
            <mxPoint x="-159.66666666666652" y="160" as="targetPoint" />
          </mxGeometry>
        </mxCell>
        <mxCell id="eHkrq_CjXB_8C5PsphUJ-35" style="edgeStyle=orthogonalEdgeStyle;rounded=0;orthogonalLoop=1;jettySize=auto;html=1;exitX=1;exitY=0.5;exitDx=0;exitDy=0;" edge="1" parent="WIyWlLk6GJQsqaUBKTNV-1" source="eHkrq_CjXB_8C5PsphUJ-23" target="eHkrq_CjXB_8C5PsphUJ-36">
          <mxGeometry relative="1" as="geometry">
            <mxPoint x="-70" y="180" as="targetPoint" />
          </mxGeometry>
        </mxCell>
        <mxCell id="eHkrq_CjXB_8C5PsphUJ-141" style="edgeStyle=orthogonalEdgeStyle;rounded=0;orthogonalLoop=1;jettySize=auto;html=1;exitX=1;exitY=1;exitDx=0;exitDy=0;entryX=0;entryY=0.5;entryDx=0;entryDy=0;endArrow=none;endFill=0;shape=link;" edge="1" parent="WIyWlLk6GJQsqaUBKTNV-1" source="eHkrq_CjXB_8C5PsphUJ-23" target="eHkrq_CjXB_8C5PsphUJ-140">
          <mxGeometry relative="1" as="geometry" />
        </mxCell>
        <mxCell id="eHkrq_CjXB_8C5PsphUJ-23" value="ADOPTER" style="rounded=0;whiteSpace=wrap;html=1;fillColor=#d5e8d4;strokeColor=#82b366;" vertex="1" parent="WIyWlLk6GJQsqaUBKTNV-1">
          <mxGeometry x="-160" y="60" width="120" height="60" as="geometry" />
        </mxCell>
        <mxCell id="eHkrq_CjXB_8C5PsphUJ-25" value="&lt;u&gt;adopter_id&lt;/u&gt;" style="ellipse;whiteSpace=wrap;html=1;aspect=fixed;fillColor=#e1d5e7;strokeColor=#9673a6;" vertex="1" parent="WIyWlLk6GJQsqaUBKTNV-1">
          <mxGeometry x="-140" y="-50" width="80" height="80" as="geometry" />
        </mxCell>
        <mxCell id="eHkrq_CjXB_8C5PsphUJ-27" value="name" style="ellipse;whiteSpace=wrap;html=1;aspect=fixed;fillColor=#dae8fc;strokeColor=#6c8ebf;" vertex="1" parent="WIyWlLk6GJQsqaUBKTNV-1">
          <mxGeometry x="-240" width="80" height="80" as="geometry" />
        </mxCell>
        <mxCell id="eHkrq_CjXB_8C5PsphUJ-29" value="address" style="ellipse;whiteSpace=wrap;html=1;aspect=fixed;fillColor=#dae8fc;strokeColor=#6c8ebf;" vertex="1" parent="WIyWlLk6GJQsqaUBKTNV-1">
          <mxGeometry x="-310" y="50" width="80" height="80" as="geometry" />
        </mxCell>
        <mxCell id="eHkrq_CjXB_8C5PsphUJ-31" value="email" style="ellipse;whiteSpace=wrap;html=1;aspect=fixed;fillColor=#dae8fc;strokeColor=#6c8ebf;" vertex="1" parent="WIyWlLk6GJQsqaUBKTNV-1">
          <mxGeometry x="-200" y="150" width="80" height="80" as="geometry" />
        </mxCell>
        <mxCell id="eHkrq_CjXB_8C5PsphUJ-36" value="phone_number" style="ellipse;whiteSpace=wrap;html=1;aspect=fixed;fillColor=#dae8fc;strokeColor=#6c8ebf;" vertex="1" parent="WIyWlLk6GJQsqaUBKTNV-1">
          <mxGeometry x="-20" y="40" width="80" height="80" as="geometry" />
        </mxCell>
        <mxCell id="eHkrq_CjXB_8C5PsphUJ-38" style="edgeStyle=orthogonalEdgeStyle;rounded=0;orthogonalLoop=1;jettySize=auto;html=1;exitX=0;exitY=1;exitDx=0;exitDy=0;" edge="1" parent="WIyWlLk6GJQsqaUBKTNV-1" source="eHkrq_CjXB_8C5PsphUJ-37">
          <mxGeometry relative="1" as="geometry">
            <mxPoint x="-270" y="660" as="targetPoint" />
          </mxGeometry>
        </mxCell>
        <mxCell id="eHkrq_CjXB_8C5PsphUJ-40" style="edgeStyle=orthogonalEdgeStyle;rounded=0;orthogonalLoop=1;jettySize=auto;html=1;exitX=0;exitY=0.5;exitDx=0;exitDy=0;entryX=1;entryY=0.5;entryDx=0;entryDy=0;" edge="1" parent="WIyWlLk6GJQsqaUBKTNV-1" source="eHkrq_CjXB_8C5PsphUJ-37" target="eHkrq_CjXB_8C5PsphUJ-41">
          <mxGeometry relative="1" as="geometry">
            <mxPoint x="-219.66666666666652" y="740" as="targetPoint" />
          </mxGeometry>
        </mxCell>
        <mxCell id="eHkrq_CjXB_8C5PsphUJ-44" style="edgeStyle=orthogonalEdgeStyle;rounded=0;orthogonalLoop=1;jettySize=auto;html=1;exitX=0.5;exitY=1;exitDx=0;exitDy=0;" edge="1" parent="WIyWlLk6GJQsqaUBKTNV-1" source="eHkrq_CjXB_8C5PsphUJ-37">
          <mxGeometry relative="1" as="geometry">
            <mxPoint x="-140" y="680" as="targetPoint" />
          </mxGeometry>
        </mxCell>
        <mxCell id="eHkrq_CjXB_8C5PsphUJ-45" style="edgeStyle=orthogonalEdgeStyle;rounded=0;orthogonalLoop=1;jettySize=auto;html=1;exitX=1;exitY=1;exitDx=0;exitDy=0;" edge="1" parent="WIyWlLk6GJQsqaUBKTNV-1" source="eHkrq_CjXB_8C5PsphUJ-37">
          <mxGeometry relative="1" as="geometry">
            <mxPoint x="-50" y="660" as="targetPoint" />
          </mxGeometry>
        </mxCell>
        <mxCell id="eHkrq_CjXB_8C5PsphUJ-47" style="edgeStyle=orthogonalEdgeStyle;rounded=0;orthogonalLoop=1;jettySize=auto;html=1;exitX=1;exitY=0.5;exitDx=0;exitDy=0;" edge="1" parent="WIyWlLk6GJQsqaUBKTNV-1" source="eHkrq_CjXB_8C5PsphUJ-37">
          <mxGeometry relative="1" as="geometry">
            <mxPoint x="-60" y="600" as="targetPoint" />
          </mxGeometry>
        </mxCell>
        <mxCell id="eHkrq_CjXB_8C5PsphUJ-37" value="ADDOPTION_EVENT" style="rounded=0;whiteSpace=wrap;html=1;fillColor=#d5e8d4;strokeColor=#82b366;" vertex="1" parent="WIyWlLk6GJQsqaUBKTNV-1">
          <mxGeometry x="-250" y="560" width="120" height="60" as="geometry" />
        </mxCell>
        <mxCell id="eHkrq_CjXB_8C5PsphUJ-39" value="&lt;u&gt;event_id&lt;/u&gt;" style="ellipse;whiteSpace=wrap;html=1;aspect=fixed;fillColor=#e1d5e7;strokeColor=#9673a6;" vertex="1" parent="WIyWlLk6GJQsqaUBKTNV-1">
          <mxGeometry x="-310" y="630" width="80" height="80" as="geometry" />
        </mxCell>
        <mxCell id="eHkrq_CjXB_8C5PsphUJ-41" value="date" style="ellipse;whiteSpace=wrap;html=1;aspect=fixed;fillColor=#dae8fc;strokeColor=#6c8ebf;" vertex="1" parent="WIyWlLk6GJQsqaUBKTNV-1">
          <mxGeometry x="-360" y="530" width="80" height="80" as="geometry" />
        </mxCell>
        <mxCell id="eHkrq_CjXB_8C5PsphUJ-43" value="shelter_id" style="ellipse;whiteSpace=wrap;html=1;aspect=fixed;fillColor=#dae8fc;strokeColor=#6c8ebf;" vertex="1" parent="WIyWlLk6GJQsqaUBKTNV-1">
          <mxGeometry x="-180" y="665" width="80" height="80" as="geometry" />
        </mxCell>
        <mxCell id="eHkrq_CjXB_8C5PsphUJ-46" value="pet_id" style="ellipse;whiteSpace=wrap;html=1;aspect=fixed;fillColor=#dae8fc;strokeColor=#6c8ebf;" vertex="1" parent="WIyWlLk6GJQsqaUBKTNV-1">
          <mxGeometry x="-90" y="650" width="80" height="80" as="geometry" />
        </mxCell>
        <mxCell id="eHkrq_CjXB_8C5PsphUJ-48" value="adopter_id" style="ellipse;whiteSpace=wrap;html=1;aspect=fixed;fillColor=#dae8fc;strokeColor=#6c8ebf;" vertex="1" parent="WIyWlLk6GJQsqaUBKTNV-1">
          <mxGeometry x="-80" y="560" width="80" height="80" as="geometry" />
        </mxCell>
        <mxCell id="eHkrq_CjXB_8C5PsphUJ-50" style="edgeStyle=orthogonalEdgeStyle;rounded=0;orthogonalLoop=1;jettySize=auto;html=1;exitX=0;exitY=0;exitDx=0;exitDy=0;" edge="1" parent="WIyWlLk6GJQsqaUBKTNV-1" source="eHkrq_CjXB_8C5PsphUJ-49">
          <mxGeometry relative="1" as="geometry">
            <mxPoint x="-141" y="310" as="targetPoint" />
          </mxGeometry>
        </mxCell>
        <mxCell id="eHkrq_CjXB_8C5PsphUJ-52" style="edgeStyle=orthogonalEdgeStyle;rounded=0;orthogonalLoop=1;jettySize=auto;html=1;exitX=1;exitY=0;exitDx=0;exitDy=0;" edge="1" parent="WIyWlLk6GJQsqaUBKTNV-1" source="eHkrq_CjXB_8C5PsphUJ-49">
          <mxGeometry relative="1" as="geometry">
            <mxPoint x="-21" y="310" as="targetPoint" />
          </mxGeometry>
        </mxCell>
        <mxCell id="eHkrq_CjXB_8C5PsphUJ-54" style="edgeStyle=orthogonalEdgeStyle;rounded=0;orthogonalLoop=1;jettySize=auto;html=1;exitX=0;exitY=1;exitDx=0;exitDy=0;" edge="1" parent="WIyWlLk6GJQsqaUBKTNV-1" source="eHkrq_CjXB_8C5PsphUJ-49">
          <mxGeometry relative="1" as="geometry">
            <mxPoint x="-141" y="450" as="targetPoint" />
          </mxGeometry>
        </mxCell>
        <mxCell id="eHkrq_CjXB_8C5PsphUJ-56" style="edgeStyle=orthogonalEdgeStyle;rounded=0;orthogonalLoop=1;jettySize=auto;html=1;exitX=1;exitY=1;exitDx=0;exitDy=0;" edge="1" parent="WIyWlLk6GJQsqaUBKTNV-1" source="eHkrq_CjXB_8C5PsphUJ-49">
          <mxGeometry relative="1" as="geometry">
            <mxPoint x="-21" y="470" as="targetPoint" />
          </mxGeometry>
        </mxCell>
        <mxCell id="eHkrq_CjXB_8C5PsphUJ-49" value="APPLICATION" style="rounded=0;whiteSpace=wrap;html=1;fillColor=#d5e8d4;strokeColor=#82b366;" vertex="1" parent="WIyWlLk6GJQsqaUBKTNV-1">
          <mxGeometry x="-141" y="350" width="120" height="60" as="geometry" />
        </mxCell>
        <mxCell id="eHkrq_CjXB_8C5PsphUJ-51" value="&lt;u&gt;application_id&lt;/u&gt;" style="ellipse;whiteSpace=wrap;html=1;aspect=fixed;fillColor=#e1d5e7;strokeColor=#9673a6;" vertex="1" parent="WIyWlLk6GJQsqaUBKTNV-1">
          <mxGeometry x="-175" y="250" width="80" height="80" as="geometry" />
        </mxCell>
        <mxCell id="eHkrq_CjXB_8C5PsphUJ-53" value="adopter_id" style="ellipse;whiteSpace=wrap;html=1;aspect=fixed;fillColor=#dae8fc;strokeColor=#6c8ebf;" vertex="1" parent="WIyWlLk6GJQsqaUBKTNV-1">
          <mxGeometry x="-65" y="250" width="80" height="80" as="geometry" />
        </mxCell>
        <mxCell id="eHkrq_CjXB_8C5PsphUJ-55" value="date" style="ellipse;whiteSpace=wrap;html=1;aspect=fixed;fillColor=#dae8fc;strokeColor=#6c8ebf;" vertex="1" parent="WIyWlLk6GJQsqaUBKTNV-1">
          <mxGeometry x="-175" y="440" width="80" height="80" as="geometry" />
        </mxCell>
        <mxCell id="eHkrq_CjXB_8C5PsphUJ-57" value="applicant_accepted" style="ellipse;whiteSpace=wrap;html=1;aspect=fixed;fillColor=#dae8fc;strokeColor=#6c8ebf;" vertex="1" parent="WIyWlLk6GJQsqaUBKTNV-1">
          <mxGeometry x="-65" y="440" width="80" height="80" as="geometry" />
        </mxCell>
        <mxCell id="eHkrq_CjXB_8C5PsphUJ-59" style="edgeStyle=orthogonalEdgeStyle;rounded=0;orthogonalLoop=1;jettySize=auto;html=1;exitX=0.5;exitY=1;exitDx=0;exitDy=0;" edge="1" parent="WIyWlLk6GJQsqaUBKTNV-1" source="eHkrq_CjXB_8C5PsphUJ-58">
          <mxGeometry relative="1" as="geometry">
            <mxPoint x="670" y="380" as="targetPoint" />
          </mxGeometry>
        </mxCell>
        <mxCell id="eHkrq_CjXB_8C5PsphUJ-61" style="edgeStyle=orthogonalEdgeStyle;rounded=0;orthogonalLoop=1;jettySize=auto;html=1;exitX=0.5;exitY=0;exitDx=0;exitDy=0;" edge="1" parent="WIyWlLk6GJQsqaUBKTNV-1" source="eHkrq_CjXB_8C5PsphUJ-58">
          <mxGeometry relative="1" as="geometry">
            <mxPoint x="670" y="250" as="targetPoint" />
          </mxGeometry>
        </mxCell>
        <mxCell id="eHkrq_CjXB_8C5PsphUJ-127" style="edgeStyle=orthogonalEdgeStyle;rounded=0;orthogonalLoop=1;jettySize=auto;html=1;exitX=0;exitY=0.5;exitDx=0;exitDy=0;entryX=1;entryY=0.5;entryDx=0;entryDy=0;endArrow=none;endFill=0;" edge="1" parent="WIyWlLk6GJQsqaUBKTNV-1" source="eHkrq_CjXB_8C5PsphUJ-58" target="eHkrq_CjXB_8C5PsphUJ-124">
          <mxGeometry relative="1" as="geometry">
            <Array as="points">
              <mxPoint x="600" y="315" />
              <mxPoint x="600" y="315" />
            </Array>
          </mxGeometry>
        </mxCell>
        <mxCell id="eHkrq_CjXB_8C5PsphUJ-58" value="DONOR" style="rounded=0;whiteSpace=wrap;html=1;fillColor=#d5e8d4;strokeColor=#82b366;" vertex="1" parent="WIyWlLk6GJQsqaUBKTNV-1">
          <mxGeometry x="610" y="285" width="120" height="60" as="geometry" />
        </mxCell>
        <mxCell id="eHkrq_CjXB_8C5PsphUJ-60" value="&lt;u&gt;donor_id&lt;/u&gt;" style="ellipse;whiteSpace=wrap;html=1;aspect=fixed;fillColor=#e1d5e7;strokeColor=#9673a6;" vertex="1" parent="WIyWlLk6GJQsqaUBKTNV-1">
          <mxGeometry x="630" y="360" width="80" height="80" as="geometry" />
        </mxCell>
        <mxCell id="eHkrq_CjXB_8C5PsphUJ-62" value="name" style="ellipse;whiteSpace=wrap;html=1;aspect=fixed;fillColor=#dae8fc;strokeColor=#6c8ebf;" vertex="1" parent="WIyWlLk6GJQsqaUBKTNV-1">
          <mxGeometry x="630" y="190" width="80" height="80" as="geometry" />
        </mxCell>
        <mxCell id="eHkrq_CjXB_8C5PsphUJ-64" style="edgeStyle=orthogonalEdgeStyle;rounded=0;orthogonalLoop=1;jettySize=auto;html=1;exitX=0;exitY=0.5;exitDx=0;exitDy=0;" edge="1" parent="WIyWlLk6GJQsqaUBKTNV-1" source="eHkrq_CjXB_8C5PsphUJ-63">
          <mxGeometry relative="1" as="geometry">
            <mxPoint x="-50" y="950" as="targetPoint" />
          </mxGeometry>
        </mxCell>
        <mxCell id="eHkrq_CjXB_8C5PsphUJ-65" style="edgeStyle=orthogonalEdgeStyle;rounded=0;orthogonalLoop=1;jettySize=auto;html=1;exitX=0.25;exitY=1;exitDx=0;exitDy=0;" edge="1" parent="WIyWlLk6GJQsqaUBKTNV-1" source="eHkrq_CjXB_8C5PsphUJ-63">
          <mxGeometry relative="1" as="geometry">
            <mxPoint x="20" y="1030" as="targetPoint" />
          </mxGeometry>
        </mxCell>
        <mxCell id="eHkrq_CjXB_8C5PsphUJ-66" style="edgeStyle=orthogonalEdgeStyle;rounded=0;orthogonalLoop=1;jettySize=auto;html=1;exitX=0.75;exitY=1;exitDx=0;exitDy=0;" edge="1" parent="WIyWlLk6GJQsqaUBKTNV-1" source="eHkrq_CjXB_8C5PsphUJ-63">
          <mxGeometry relative="1" as="geometry">
            <mxPoint x="80" y="1100" as="targetPoint" />
          </mxGeometry>
        </mxCell>
        <mxCell id="eHkrq_CjXB_8C5PsphUJ-67" style="edgeStyle=orthogonalEdgeStyle;rounded=0;orthogonalLoop=1;jettySize=auto;html=1;exitX=1;exitY=0.5;exitDx=0;exitDy=0;" edge="1" parent="WIyWlLk6GJQsqaUBKTNV-1" source="eHkrq_CjXB_8C5PsphUJ-63">
          <mxGeometry relative="1" as="geometry">
            <mxPoint x="160" y="950" as="targetPoint" />
          </mxGeometry>
        </mxCell>
        <mxCell id="eHkrq_CjXB_8C5PsphUJ-143" style="edgeStyle=orthogonalEdgeStyle;rounded=0;orthogonalLoop=1;jettySize=auto;html=1;exitX=0.25;exitY=0;exitDx=0;exitDy=0;entryX=1;entryY=0.5;entryDx=0;entryDy=0;endArrow=none;endFill=0;shape=link;" edge="1" parent="WIyWlLk6GJQsqaUBKTNV-1" source="eHkrq_CjXB_8C5PsphUJ-63" target="eHkrq_CjXB_8C5PsphUJ-142">
          <mxGeometry relative="1" as="geometry" />
        </mxCell>
        <mxCell id="eHkrq_CjXB_8C5PsphUJ-63" value="EMPLOYEE" style="rounded=0;whiteSpace=wrap;html=1;fillColor=#d5e8d4;strokeColor=#82b366;" vertex="1" parent="WIyWlLk6GJQsqaUBKTNV-1">
          <mxGeometry x="-10" y="920" width="120" height="60" as="geometry" />
        </mxCell>
        <mxCell id="eHkrq_CjXB_8C5PsphUJ-68" value="&lt;u&gt;staff_id&lt;/u&gt;" style="ellipse;whiteSpace=wrap;html=1;aspect=fixed;fillColor=#e1d5e7;strokeColor=#9673a6;" vertex="1" parent="WIyWlLk6GJQsqaUBKTNV-1">
          <mxGeometry x="-110" y="910" width="80" height="80" as="geometry" />
        </mxCell>
        <mxCell id="eHkrq_CjXB_8C5PsphUJ-69" value="start_date" style="ellipse;whiteSpace=wrap;html=1;aspect=fixed;fillColor=#dae8fc;strokeColor=#6c8ebf;" vertex="1" parent="WIyWlLk6GJQsqaUBKTNV-1">
          <mxGeometry x="-20" y="990" width="80" height="80" as="geometry" />
        </mxCell>
        <mxCell id="eHkrq_CjXB_8C5PsphUJ-70" value="max_hours" style="ellipse;whiteSpace=wrap;html=1;aspect=fixed;fillColor=#dae8fc;strokeColor=#6c8ebf;" vertex="1" parent="WIyWlLk6GJQsqaUBKTNV-1">
          <mxGeometry x="40" y="1060" width="80" height="80" as="geometry" />
        </mxCell>
        <mxCell id="eHkrq_CjXB_8C5PsphUJ-71" value="role" style="ellipse;whiteSpace=wrap;html=1;aspect=fixed;fillColor=#dae8fc;strokeColor=#6c8ebf;" vertex="1" parent="WIyWlLk6GJQsqaUBKTNV-1">
          <mxGeometry x="130" y="910" width="80" height="80" as="geometry" />
        </mxCell>
        <mxCell id="eHkrq_CjXB_8C5PsphUJ-73" style="edgeStyle=orthogonalEdgeStyle;rounded=0;orthogonalLoop=1;jettySize=auto;html=1;exitX=0;exitY=0.5;exitDx=0;exitDy=0;" edge="1" parent="WIyWlLk6GJQsqaUBKTNV-1" source="eHkrq_CjXB_8C5PsphUJ-72">
          <mxGeometry relative="1" as="geometry">
            <mxPoint x="510" y="570" as="targetPoint" />
          </mxGeometry>
        </mxCell>
        <mxCell id="eHkrq_CjXB_8C5PsphUJ-74" style="edgeStyle=orthogonalEdgeStyle;rounded=0;orthogonalLoop=1;jettySize=auto;html=1;exitX=0.25;exitY=1;exitDx=0;exitDy=0;" edge="1" parent="WIyWlLk6GJQsqaUBKTNV-1" source="eHkrq_CjXB_8C5PsphUJ-72">
          <mxGeometry relative="1" as="geometry">
            <mxPoint x="590" y="630" as="targetPoint" />
          </mxGeometry>
        </mxCell>
        <mxCell id="eHkrq_CjXB_8C5PsphUJ-75" style="edgeStyle=orthogonalEdgeStyle;rounded=0;orthogonalLoop=1;jettySize=auto;html=1;exitX=0.75;exitY=1;exitDx=0;exitDy=0;" edge="1" parent="WIyWlLk6GJQsqaUBKTNV-1" source="eHkrq_CjXB_8C5PsphUJ-72">
          <mxGeometry relative="1" as="geometry">
            <mxPoint x="650" y="680" as="targetPoint" />
          </mxGeometry>
        </mxCell>
        <mxCell id="eHkrq_CjXB_8C5PsphUJ-76" style="edgeStyle=orthogonalEdgeStyle;rounded=0;orthogonalLoop=1;jettySize=auto;html=1;exitX=1;exitY=0.5;exitDx=0;exitDy=0;" edge="1" parent="WIyWlLk6GJQsqaUBKTNV-1" source="eHkrq_CjXB_8C5PsphUJ-72">
          <mxGeometry relative="1" as="geometry">
            <mxPoint x="730" y="570" as="targetPoint" />
          </mxGeometry>
        </mxCell>
        <mxCell id="eHkrq_CjXB_8C5PsphUJ-77" style="edgeStyle=orthogonalEdgeStyle;rounded=0;orthogonalLoop=1;jettySize=auto;html=1;exitX=0.5;exitY=0;exitDx=0;exitDy=0;" edge="1" parent="WIyWlLk6GJQsqaUBKTNV-1" source="eHkrq_CjXB_8C5PsphUJ-72">
          <mxGeometry relative="1" as="geometry">
            <mxPoint x="620" y="490" as="targetPoint" />
          </mxGeometry>
        </mxCell>
        <mxCell id="eHkrq_CjXB_8C5PsphUJ-72" value="HEALTH_RECORDS" style="rounded=0;whiteSpace=wrap;html=1;fillColor=#d5e8d4;strokeColor=#82b366;" vertex="1" parent="WIyWlLk6GJQsqaUBKTNV-1">
          <mxGeometry x="560" y="540" width="120" height="60" as="geometry" />
        </mxCell>
        <mxCell id="eHkrq_CjXB_8C5PsphUJ-78" value="pet_id" style="ellipse;whiteSpace=wrap;html=1;aspect=fixed;fillColor=#dae8fc;strokeColor=#6c8ebf;" vertex="1" parent="WIyWlLk6GJQsqaUBKTNV-1">
          <mxGeometry x="470" y="530" width="80" height="80" as="geometry" />
        </mxCell>
        <mxCell id="eHkrq_CjXB_8C5PsphUJ-79" value="&lt;u&gt;record_id&lt;/u&gt;" style="ellipse;whiteSpace=wrap;html=1;aspect=fixed;fillColor=#e1d5e7;strokeColor=#9673a6;" vertex="1" parent="WIyWlLk6GJQsqaUBKTNV-1">
          <mxGeometry x="580" y="440" width="80" height="80" as="geometry" />
        </mxCell>
        <mxCell id="eHkrq_CjXB_8C5PsphUJ-80" value="vaccinations" style="ellipse;whiteSpace=wrap;html=1;aspect=fixed;fillColor=#dae8fc;strokeColor=#6c8ebf;" vertex="1" parent="WIyWlLk6GJQsqaUBKTNV-1">
          <mxGeometry x="550" y="610" width="80" height="80" as="geometry" />
        </mxCell>
        <mxCell id="eHkrq_CjXB_8C5PsphUJ-81" value="records" style="ellipse;whiteSpace=wrap;html=1;aspect=fixed;fillColor=#dae8fc;strokeColor=#6c8ebf;" vertex="1" parent="WIyWlLk6GJQsqaUBKTNV-1">
          <mxGeometry x="610" y="670" width="80" height="80" as="geometry" />
        </mxCell>
        <mxCell id="eHkrq_CjXB_8C5PsphUJ-82" value="update_dateTime" style="ellipse;whiteSpace=wrap;html=1;aspect=fixed;fillColor=#dae8fc;strokeColor=#6c8ebf;" vertex="1" parent="WIyWlLk6GJQsqaUBKTNV-1">
          <mxGeometry x="690" y="530" width="100" height="100" as="geometry" />
        </mxCell>
        <mxCell id="eHkrq_CjXB_8C5PsphUJ-84" style="edgeStyle=orthogonalEdgeStyle;rounded=0;orthogonalLoop=1;jettySize=auto;html=1;exitX=0.5;exitY=1;exitDx=0;exitDy=0;" edge="1" parent="WIyWlLk6GJQsqaUBKTNV-1" source="eHkrq_CjXB_8C5PsphUJ-83">
          <mxGeometry relative="1" as="geometry">
            <mxPoint x="274" y="445" as="targetPoint" />
          </mxGeometry>
        </mxCell>
        <mxCell id="eHkrq_CjXB_8C5PsphUJ-85" style="edgeStyle=orthogonalEdgeStyle;rounded=0;orthogonalLoop=1;jettySize=auto;html=1;exitX=0;exitY=0.5;exitDx=0;exitDy=0;" edge="1" parent="WIyWlLk6GJQsqaUBKTNV-1" source="eHkrq_CjXB_8C5PsphUJ-83">
          <mxGeometry relative="1" as="geometry">
            <mxPoint x="174" y="365" as="targetPoint" />
          </mxGeometry>
        </mxCell>
        <mxCell id="eHkrq_CjXB_8C5PsphUJ-86" style="edgeStyle=orthogonalEdgeStyle;rounded=0;orthogonalLoop=1;jettySize=auto;html=1;exitX=0.5;exitY=0;exitDx=0;exitDy=0;" edge="1" parent="WIyWlLk6GJQsqaUBKTNV-1" source="eHkrq_CjXB_8C5PsphUJ-83">
          <mxGeometry relative="1" as="geometry">
            <mxPoint x="274" y="295" as="targetPoint" />
          </mxGeometry>
        </mxCell>
        <mxCell id="eHkrq_CjXB_8C5PsphUJ-87" style="edgeStyle=orthogonalEdgeStyle;rounded=0;orthogonalLoop=1;jettySize=auto;html=1;exitX=1;exitY=0.5;exitDx=0;exitDy=0;" edge="1" parent="WIyWlLk6GJQsqaUBKTNV-1" source="eHkrq_CjXB_8C5PsphUJ-83">
          <mxGeometry relative="1" as="geometry">
            <mxPoint x="374" y="365" as="targetPoint" />
          </mxGeometry>
        </mxCell>
        <mxCell id="eHkrq_CjXB_8C5PsphUJ-125" style="edgeStyle=orthogonalEdgeStyle;rounded=0;orthogonalLoop=1;jettySize=auto;html=1;exitX=0;exitY=1;exitDx=0;exitDy=0;entryX=0.5;entryY=0;entryDx=0;entryDy=0;endArrow=none;endFill=0;shape=link;" edge="1" parent="WIyWlLk6GJQsqaUBKTNV-1" source="eHkrq_CjXB_8C5PsphUJ-83" target="eHkrq_CjXB_8C5PsphUJ-123">
          <mxGeometry relative="1" as="geometry" />
        </mxCell>
        <mxCell id="eHkrq_CjXB_8C5PsphUJ-134" style="edgeStyle=orthogonalEdgeStyle;rounded=0;orthogonalLoop=1;jettySize=auto;html=1;exitX=0;exitY=0;exitDx=0;exitDy=0;entryX=0.5;entryY=1;entryDx=0;entryDy=0;endArrow=none;endFill=0;shape=link;" edge="1" parent="WIyWlLk6GJQsqaUBKTNV-1" source="eHkrq_CjXB_8C5PsphUJ-83" target="eHkrq_CjXB_8C5PsphUJ-133">
          <mxGeometry relative="1" as="geometry" />
        </mxCell>
        <mxCell id="eHkrq_CjXB_8C5PsphUJ-83" value="SHELTER" style="rounded=0;whiteSpace=wrap;html=1;fillColor=#d5e8d4;strokeColor=#82b366;" vertex="1" parent="WIyWlLk6GJQsqaUBKTNV-1">
          <mxGeometry x="214" y="335" width="120" height="60" as="geometry" />
        </mxCell>
        <mxCell id="eHkrq_CjXB_8C5PsphUJ-88" value="&lt;u&gt;shelter_id&lt;/u&gt;" style="ellipse;whiteSpace=wrap;html=1;aspect=fixed;fillColor=#e1d5e7;strokeColor=#9673a6;" vertex="1" parent="WIyWlLk6GJQsqaUBKTNV-1">
          <mxGeometry x="234" y="245" width="80" height="80" as="geometry" />
        </mxCell>
        <mxCell id="eHkrq_CjXB_8C5PsphUJ-89" value="shelter_name" style="ellipse;whiteSpace=wrap;html=1;aspect=fixed;fillColor=#dae8fc;strokeColor=#6c8ebf;" vertex="1" parent="WIyWlLk6GJQsqaUBKTNV-1">
          <mxGeometry x="124" y="325" width="80" height="80" as="geometry" />
        </mxCell>
        <mxCell id="eHkrq_CjXB_8C5PsphUJ-90" value="capacity" style="ellipse;whiteSpace=wrap;html=1;aspect=fixed;fillColor=#dae8fc;strokeColor=#6c8ebf;" vertex="1" parent="WIyWlLk6GJQsqaUBKTNV-1">
          <mxGeometry x="234" y="405" width="80" height="80" as="geometry" />
        </mxCell>
        <mxCell id="eHkrq_CjXB_8C5PsphUJ-91" value="address" style="ellipse;whiteSpace=wrap;html=1;aspect=fixed;fillColor=#dae8fc;strokeColor=#6c8ebf;" vertex="1" parent="WIyWlLk6GJQsqaUBKTNV-1">
          <mxGeometry x="344" y="325" width="80" height="80" as="geometry" />
        </mxCell>
        <mxCell id="eHkrq_CjXB_8C5PsphUJ-93" style="edgeStyle=orthogonalEdgeStyle;rounded=0;orthogonalLoop=1;jettySize=auto;html=1;exitX=0;exitY=0.5;exitDx=0;exitDy=0;" edge="1" parent="WIyWlLk6GJQsqaUBKTNV-1" source="eHkrq_CjXB_8C5PsphUJ-92">
          <mxGeometry relative="1" as="geometry">
            <mxPoint x="254" y="664.7692307692305" as="targetPoint" />
          </mxGeometry>
        </mxCell>
        <mxCell id="eHkrq_CjXB_8C5PsphUJ-94" style="edgeStyle=orthogonalEdgeStyle;rounded=0;orthogonalLoop=1;jettySize=auto;html=1;exitX=1;exitY=0.5;exitDx=0;exitDy=0;" edge="1" parent="WIyWlLk6GJQsqaUBKTNV-1" source="eHkrq_CjXB_8C5PsphUJ-92">
          <mxGeometry relative="1" as="geometry">
            <mxPoint x="454" y="664.7692307692305" as="targetPoint" />
          </mxGeometry>
        </mxCell>
        <mxCell id="eHkrq_CjXB_8C5PsphUJ-95" style="edgeStyle=orthogonalEdgeStyle;rounded=0;orthogonalLoop=1;jettySize=auto;html=1;exitX=0.5;exitY=0;exitDx=0;exitDy=0;" edge="1" parent="WIyWlLk6GJQsqaUBKTNV-1" source="eHkrq_CjXB_8C5PsphUJ-92">
          <mxGeometry relative="1" as="geometry">
            <mxPoint x="354" y="605" as="targetPoint" />
          </mxGeometry>
        </mxCell>
        <mxCell id="eHkrq_CjXB_8C5PsphUJ-96" style="edgeStyle=orthogonalEdgeStyle;rounded=0;orthogonalLoop=1;jettySize=auto;html=1;exitX=0.25;exitY=1;exitDx=0;exitDy=0;entryX=0.952;entryY=0.367;entryDx=0;entryDy=0;entryPerimeter=0;" edge="1" parent="WIyWlLk6GJQsqaUBKTNV-1" source="eHkrq_CjXB_8C5PsphUJ-92" target="eHkrq_CjXB_8C5PsphUJ-100">
          <mxGeometry relative="1" as="geometry">
            <mxPoint x="324.7692307692305" y="735" as="targetPoint" />
          </mxGeometry>
        </mxCell>
        <mxCell id="eHkrq_CjXB_8C5PsphUJ-97" style="edgeStyle=orthogonalEdgeStyle;rounded=0;orthogonalLoop=1;jettySize=auto;html=1;exitX=0.75;exitY=1;exitDx=0;exitDy=0;entryX=0;entryY=0.5;entryDx=0;entryDy=0;" edge="1" parent="WIyWlLk6GJQsqaUBKTNV-1" source="eHkrq_CjXB_8C5PsphUJ-92" target="eHkrq_CjXB_8C5PsphUJ-101">
          <mxGeometry relative="1" as="geometry">
            <mxPoint x="384.7692307692305" y="775" as="targetPoint" />
          </mxGeometry>
        </mxCell>
        <mxCell id="eHkrq_CjXB_8C5PsphUJ-117" style="edgeStyle=orthogonalEdgeStyle;rounded=0;orthogonalLoop=1;jettySize=auto;html=1;exitX=0.5;exitY=1;exitDx=0;exitDy=0;" edge="1" parent="WIyWlLk6GJQsqaUBKTNV-1" source="eHkrq_CjXB_8C5PsphUJ-118">
          <mxGeometry relative="1" as="geometry">
            <mxPoint x="354.6153846153843" y="790" as="targetPoint" />
          </mxGeometry>
        </mxCell>
        <mxCell id="eHkrq_CjXB_8C5PsphUJ-92" value="STAFF" style="rounded=0;whiteSpace=wrap;html=1;fillColor=#d5e8d4;strokeColor=#82b366;" vertex="1" parent="WIyWlLk6GJQsqaUBKTNV-1">
          <mxGeometry x="294" y="635" width="120" height="60" as="geometry" />
        </mxCell>
        <mxCell id="eHkrq_CjXB_8C5PsphUJ-98" value="&lt;u&gt;staff_id&lt;/u&gt;" style="ellipse;whiteSpace=wrap;html=1;aspect=fixed;fillColor=#e1d5e7;strokeColor=#9673a6;" vertex="1" parent="WIyWlLk6GJQsqaUBKTNV-1">
          <mxGeometry x="314" y="540" width="80" height="80" as="geometry" />
        </mxCell>
        <mxCell id="eHkrq_CjXB_8C5PsphUJ-99" value="name" style="ellipse;whiteSpace=wrap;html=1;aspect=fixed;fillColor=#dae8fc;strokeColor=#6c8ebf;" vertex="1" parent="WIyWlLk6GJQsqaUBKTNV-1">
          <mxGeometry x="194" y="625" width="80" height="80" as="geometry" />
        </mxCell>
        <mxCell id="eHkrq_CjXB_8C5PsphUJ-100" value="phone" style="ellipse;whiteSpace=wrap;html=1;aspect=fixed;fillColor=#dae8fc;strokeColor=#6c8ebf;" vertex="1" parent="WIyWlLk6GJQsqaUBKTNV-1">
          <mxGeometry x="220" y="705" width="80" height="80" as="geometry" />
        </mxCell>
        <mxCell id="eHkrq_CjXB_8C5PsphUJ-101" value="email" style="ellipse;whiteSpace=wrap;html=1;aspect=fixed;fillColor=#dae8fc;strokeColor=#6c8ebf;" vertex="1" parent="WIyWlLk6GJQsqaUBKTNV-1">
          <mxGeometry x="424" y="710" width="80" height="80" as="geometry" />
        </mxCell>
        <mxCell id="eHkrq_CjXB_8C5PsphUJ-102" value="availability" style="ellipse;whiteSpace=wrap;html=1;aspect=fixed;fillColor=#dae8fc;strokeColor=#6c8ebf;" vertex="1" parent="WIyWlLk6GJQsqaUBKTNV-1">
          <mxGeometry x="424" y="625" width="80" height="80" as="geometry" />
        </mxCell>
        <mxCell id="eHkrq_CjXB_8C5PsphUJ-104" style="edgeStyle=orthogonalEdgeStyle;rounded=0;orthogonalLoop=1;jettySize=auto;html=1;exitX=0;exitY=0.5;exitDx=0;exitDy=0;" edge="1" parent="WIyWlLk6GJQsqaUBKTNV-1" source="eHkrq_CjXB_8C5PsphUJ-103">
          <mxGeometry relative="1" as="geometry">
            <mxPoint x="280" y="1024.8947368421054" as="targetPoint" />
          </mxGeometry>
        </mxCell>
        <mxCell id="eHkrq_CjXB_8C5PsphUJ-105" style="edgeStyle=orthogonalEdgeStyle;rounded=0;orthogonalLoop=1;jettySize=auto;html=1;exitX=0.5;exitY=0;exitDx=0;exitDy=0;" edge="1" parent="WIyWlLk6GJQsqaUBKTNV-1" source="eHkrq_CjXB_8C5PsphUJ-103">
          <mxGeometry relative="1" as="geometry">
            <mxPoint x="369.6315789473683" y="975" as="targetPoint" />
          </mxGeometry>
        </mxCell>
        <mxCell id="eHkrq_CjXB_8C5PsphUJ-106" style="edgeStyle=orthogonalEdgeStyle;rounded=0;orthogonalLoop=1;jettySize=auto;html=1;exitX=1;exitY=1;exitDx=0;exitDy=0;entryX=1;entryY=0;entryDx=0;entryDy=0;" edge="1" parent="WIyWlLk6GJQsqaUBKTNV-1" source="eHkrq_CjXB_8C5PsphUJ-103" target="eHkrq_CjXB_8C5PsphUJ-111">
          <mxGeometry relative="1" as="geometry">
            <mxPoint x="369.6315789473683" y="1085" as="targetPoint" />
            <Array as="points">
              <mxPoint x="442" y="1055" />
            </Array>
          </mxGeometry>
        </mxCell>
        <mxCell id="eHkrq_CjXB_8C5PsphUJ-107" style="edgeStyle=orthogonalEdgeStyle;rounded=0;orthogonalLoop=1;jettySize=auto;html=1;exitX=1;exitY=0.5;exitDx=0;exitDy=0;" edge="1" parent="WIyWlLk6GJQsqaUBKTNV-1" source="eHkrq_CjXB_8C5PsphUJ-103">
          <mxGeometry relative="1" as="geometry">
            <mxPoint x="460" y="1024.8947368421054" as="targetPoint" />
          </mxGeometry>
        </mxCell>
        <mxCell id="eHkrq_CjXB_8C5PsphUJ-162" style="edgeStyle=orthogonalEdgeStyle;rounded=0;orthogonalLoop=1;jettySize=auto;html=1;exitX=0.5;exitY=1;exitDx=0;exitDy=0;entryX=0.5;entryY=0;entryDx=0;entryDy=0;endArrow=none;endFill=0;shape=link;" edge="1" parent="WIyWlLk6GJQsqaUBKTNV-1" source="eHkrq_CjXB_8C5PsphUJ-103" target="eHkrq_CjXB_8C5PsphUJ-161">
          <mxGeometry relative="1" as="geometry" />
        </mxCell>
        <mxCell id="eHkrq_CjXB_8C5PsphUJ-103" value="TRAINER" style="rounded=0;whiteSpace=wrap;html=1;fillColor=#d5e8d4;strokeColor=#82b366;" vertex="1" parent="WIyWlLk6GJQsqaUBKTNV-1">
          <mxGeometry x="310" y="995" width="120" height="60" as="geometry" />
        </mxCell>
        <mxCell id="eHkrq_CjXB_8C5PsphUJ-108" value="&lt;u&gt;staff_id&lt;/u&gt;" style="ellipse;whiteSpace=wrap;html=1;aspect=fixed;fillColor=#e1d5e7;strokeColor=#9673a6;" vertex="1" parent="WIyWlLk6GJQsqaUBKTNV-1">
          <mxGeometry x="330" y="910" width="80" height="80" as="geometry" />
        </mxCell>
        <mxCell id="eHkrq_CjXB_8C5PsphUJ-109" value="specialization" style="ellipse;whiteSpace=wrap;html=1;aspect=fixed;fillColor=#dae8fc;strokeColor=#6c8ebf;" vertex="1" parent="WIyWlLk6GJQsqaUBKTNV-1">
          <mxGeometry x="220" y="985" width="80" height="80" as="geometry" />
        </mxCell>
        <mxCell id="eHkrq_CjXB_8C5PsphUJ-110" value="session_types" style="ellipse;whiteSpace=wrap;html=1;aspect=fixed;fillColor=#dae8fc;strokeColor=#6c8ebf;" vertex="1" parent="WIyWlLk6GJQsqaUBKTNV-1">
          <mxGeometry x="440" y="985" width="80" height="80" as="geometry" />
        </mxCell>
        <mxCell id="eHkrq_CjXB_8C5PsphUJ-111" value="certification_level" style="ellipse;whiteSpace=wrap;html=1;aspect=fixed;fillColor=#dae8fc;strokeColor=#6c8ebf;" vertex="1" parent="WIyWlLk6GJQsqaUBKTNV-1">
          <mxGeometry x="374" y="1065" width="80" height="80" as="geometry" />
        </mxCell>
        <mxCell id="eHkrq_CjXB_8C5PsphUJ-113" style="edgeStyle=orthogonalEdgeStyle;rounded=0;orthogonalLoop=1;jettySize=auto;html=1;exitX=0.25;exitY=1;exitDx=0;exitDy=0;" edge="1" parent="WIyWlLk6GJQsqaUBKTNV-1" source="eHkrq_CjXB_8C5PsphUJ-112">
          <mxGeometry relative="1" as="geometry">
            <mxPoint x="649.6315789473683" y="1090" as="targetPoint" />
          </mxGeometry>
        </mxCell>
        <mxCell id="eHkrq_CjXB_8C5PsphUJ-114" style="edgeStyle=orthogonalEdgeStyle;rounded=0;orthogonalLoop=1;jettySize=auto;html=1;exitX=0.75;exitY=1;exitDx=0;exitDy=0;" edge="1" parent="WIyWlLk6GJQsqaUBKTNV-1" source="eHkrq_CjXB_8C5PsphUJ-112">
          <mxGeometry relative="1" as="geometry">
            <mxPoint x="709.6315789473683" y="1130" as="targetPoint" />
          </mxGeometry>
        </mxCell>
        <mxCell id="eHkrq_CjXB_8C5PsphUJ-112" value="VOLUNTEER" style="rounded=0;whiteSpace=wrap;html=1;fillColor=#d5e8d4;strokeColor=#82b366;" vertex="1" parent="WIyWlLk6GJQsqaUBKTNV-1">
          <mxGeometry x="620" y="990" width="120" height="60" as="geometry" />
        </mxCell>
        <mxCell id="eHkrq_CjXB_8C5PsphUJ-115" value="&lt;u&gt;staff_id&lt;/u&gt;" style="ellipse;whiteSpace=wrap;html=1;aspect=fixed;fillColor=#e1d5e7;strokeColor=#9673a6;" vertex="1" parent="WIyWlLk6GJQsqaUBKTNV-1">
          <mxGeometry x="610" y="1060" width="80" height="80" as="geometry" />
        </mxCell>
        <mxCell id="eHkrq_CjXB_8C5PsphUJ-116" value="preffered_tasks" style="ellipse;whiteSpace=wrap;html=1;aspect=fixed;fillColor=#dae8fc;strokeColor=#6c8ebf;" vertex="1" parent="WIyWlLk6GJQsqaUBKTNV-1">
          <mxGeometry x="670" y="1120" width="80" height="80" as="geometry" />
        </mxCell>
        <mxCell id="eHkrq_CjXB_8C5PsphUJ-119" value="" style="edgeStyle=orthogonalEdgeStyle;rounded=0;orthogonalLoop=1;jettySize=auto;html=1;exitX=0.5;exitY=1;exitDx=0;exitDy=0;endArrow=none;endFill=0;" edge="1" parent="WIyWlLk6GJQsqaUBKTNV-1" source="eHkrq_CjXB_8C5PsphUJ-92" target="eHkrq_CjXB_8C5PsphUJ-118">
          <mxGeometry relative="1" as="geometry">
            <mxPoint x="354.6153846153843" y="790" as="targetPoint" />
            <mxPoint x="354" y="695" as="sourcePoint" />
          </mxGeometry>
        </mxCell>
        <mxCell id="eHkrq_CjXB_8C5PsphUJ-120" style="edgeStyle=orthogonalEdgeStyle;rounded=0;orthogonalLoop=1;jettySize=auto;html=1;exitX=0;exitY=1;exitDx=0;exitDy=0;entryX=0.5;entryY=0;entryDx=0;entryDy=0;endArrow=none;endFill=0;" edge="1" parent="WIyWlLk6GJQsqaUBKTNV-1" source="eHkrq_CjXB_8C5PsphUJ-118" target="eHkrq_CjXB_8C5PsphUJ-63">
          <mxGeometry relative="1" as="geometry" />
        </mxCell>
        <mxCell id="eHkrq_CjXB_8C5PsphUJ-121" style="edgeStyle=orthogonalEdgeStyle;rounded=0;orthogonalLoop=1;jettySize=auto;html=1;exitX=0.5;exitY=1;exitDx=0;exitDy=0;entryX=0;entryY=0;entryDx=0;entryDy=0;endArrow=none;endFill=0;" edge="1" parent="WIyWlLk6GJQsqaUBKTNV-1" source="eHkrq_CjXB_8C5PsphUJ-118" target="eHkrq_CjXB_8C5PsphUJ-103">
          <mxGeometry relative="1" as="geometry" />
        </mxCell>
        <mxCell id="eHkrq_CjXB_8C5PsphUJ-122" style="edgeStyle=orthogonalEdgeStyle;rounded=0;orthogonalLoop=1;jettySize=auto;html=1;exitX=1;exitY=1;exitDx=0;exitDy=0;entryX=0.5;entryY=0;entryDx=0;entryDy=0;endArrow=none;endFill=0;" edge="1" parent="WIyWlLk6GJQsqaUBKTNV-1" source="eHkrq_CjXB_8C5PsphUJ-118" target="eHkrq_CjXB_8C5PsphUJ-112">
          <mxGeometry relative="1" as="geometry" />
        </mxCell>
        <mxCell id="eHkrq_CjXB_8C5PsphUJ-118" value="d" style="ellipse;whiteSpace=wrap;html=1;aspect=fixed;" vertex="1" parent="WIyWlLk6GJQsqaUBKTNV-1">
          <mxGeometry x="329" y="750" width="50" height="50" as="geometry" />
        </mxCell>
        <mxCell id="eHkrq_CjXB_8C5PsphUJ-126" style="edgeStyle=orthogonalEdgeStyle;rounded=0;orthogonalLoop=1;jettySize=auto;html=1;exitX=1;exitY=0.5;exitDx=0;exitDy=0;entryX=0;entryY=0;entryDx=0;entryDy=0;endArrow=none;endFill=0;shape=link;" edge="1" parent="WIyWlLk6GJQsqaUBKTNV-1" source="eHkrq_CjXB_8C5PsphUJ-123" target="eHkrq_CjXB_8C5PsphUJ-92">
          <mxGeometry relative="1" as="geometry" />
        </mxCell>
        <mxCell id="eHkrq_CjXB_8C5PsphUJ-123" value="EMPLOYS" style="rhombus;whiteSpace=wrap;html=1;fillColor=#ffe6cc;strokeColor=#d79b00;" vertex="1" parent="WIyWlLk6GJQsqaUBKTNV-1">
          <mxGeometry x="110" y="520" width="80" height="80" as="geometry" />
        </mxCell>
        <mxCell id="eHkrq_CjXB_8C5PsphUJ-128" style="edgeStyle=orthogonalEdgeStyle;rounded=0;orthogonalLoop=1;jettySize=auto;html=1;exitX=0;exitY=0.5;exitDx=0;exitDy=0;entryX=1;entryY=0;entryDx=0;entryDy=0;endArrow=none;endFill=0;" edge="1" parent="WIyWlLk6GJQsqaUBKTNV-1" source="eHkrq_CjXB_8C5PsphUJ-124" target="eHkrq_CjXB_8C5PsphUJ-83">
          <mxGeometry relative="1" as="geometry" />
        </mxCell>
        <mxCell id="eHkrq_CjXB_8C5PsphUJ-129" style="edgeStyle=orthogonalEdgeStyle;rounded=0;orthogonalLoop=1;jettySize=auto;html=1;exitX=0.5;exitY=1;exitDx=0;exitDy=0;" edge="1" parent="WIyWlLk6GJQsqaUBKTNV-1" source="eHkrq_CjXB_8C5PsphUJ-124">
          <mxGeometry relative="1" as="geometry">
            <mxPoint x="519.5" y="390" as="targetPoint" />
          </mxGeometry>
        </mxCell>
        <mxCell id="eHkrq_CjXB_8C5PsphUJ-130" style="edgeStyle=orthogonalEdgeStyle;rounded=0;orthogonalLoop=1;jettySize=auto;html=1;exitX=0.5;exitY=0;exitDx=0;exitDy=0;" edge="1" parent="WIyWlLk6GJQsqaUBKTNV-1" source="eHkrq_CjXB_8C5PsphUJ-124">
          <mxGeometry relative="1" as="geometry">
            <mxPoint x="519.5" y="250" as="targetPoint" />
          </mxGeometry>
        </mxCell>
        <mxCell id="eHkrq_CjXB_8C5PsphUJ-124" value="DONATES" style="rhombus;whiteSpace=wrap;html=1;fillColor=#ffe6cc;strokeColor=#d79b00;" vertex="1" parent="WIyWlLk6GJQsqaUBKTNV-1">
          <mxGeometry x="480" y="275" width="80" height="80" as="geometry" />
        </mxCell>
        <mxCell id="eHkrq_CjXB_8C5PsphUJ-131" value="date" style="ellipse;whiteSpace=wrap;html=1;aspect=fixed;fillColor=#dae8fc;strokeColor=#6c8ebf;" vertex="1" parent="WIyWlLk6GJQsqaUBKTNV-1">
          <mxGeometry x="480" y="360" width="80" height="80" as="geometry" />
        </mxCell>
        <mxCell id="eHkrq_CjXB_8C5PsphUJ-132" value="ammount" style="ellipse;whiteSpace=wrap;html=1;aspect=fixed;fillColor=#dae8fc;strokeColor=#6c8ebf;" vertex="1" parent="WIyWlLk6GJQsqaUBKTNV-1">
          <mxGeometry x="480" y="190" width="80" height="80" as="geometry" />
        </mxCell>
        <mxCell id="eHkrq_CjXB_8C5PsphUJ-135" style="edgeStyle=orthogonalEdgeStyle;rounded=0;orthogonalLoop=1;jettySize=auto;html=1;exitX=1;exitY=0.5;exitDx=0;exitDy=0;entryX=0.5;entryY=1;entryDx=0;entryDy=0;endArrow=none;endFill=0;shape=link;" edge="1" parent="WIyWlLk6GJQsqaUBKTNV-1" source="eHkrq_CjXB_8C5PsphUJ-133" target="eHkrq_CjXB_8C5PsphUJ-0">
          <mxGeometry relative="1" as="geometry" />
        </mxCell>
        <mxCell id="eHkrq_CjXB_8C5PsphUJ-133" value="HOUSES" style="rhombus;whiteSpace=wrap;html=1;fillColor=#ffe6cc;strokeColor=#d79b00;" vertex="1" parent="WIyWlLk6GJQsqaUBKTNV-1">
          <mxGeometry x="170" y="190" width="80" height="80" as="geometry" />
        </mxCell>
        <mxCell id="eHkrq_CjXB_8C5PsphUJ-138" style="edgeStyle=orthogonalEdgeStyle;rounded=0;orthogonalLoop=1;jettySize=auto;html=1;exitX=0.5;exitY=1;exitDx=0;exitDy=0;entryX=0.5;entryY=0;entryDx=0;entryDy=0;endArrow=none;endFill=0;shape=link;" edge="1" parent="WIyWlLk6GJQsqaUBKTNV-1" source="eHkrq_CjXB_8C5PsphUJ-136" target="eHkrq_CjXB_8C5PsphUJ-49">
          <mxGeometry relative="1" as="geometry" />
        </mxCell>
        <mxCell id="eHkrq_CjXB_8C5PsphUJ-136" value="FILLS OUT" style="rhombus;whiteSpace=wrap;html=1;fillColor=#ffe6cc;strokeColor=#d79b00;" vertex="1" parent="WIyWlLk6GJQsqaUBKTNV-1">
          <mxGeometry x="-120" y="170" width="80" height="80" as="geometry" />
        </mxCell>
        <mxCell id="eHkrq_CjXB_8C5PsphUJ-137" style="edgeStyle=orthogonalEdgeStyle;rounded=0;orthogonalLoop=1;jettySize=auto;html=1;exitX=0.5;exitY=0;exitDx=0;exitDy=0;entryX=0.683;entryY=0.996;entryDx=0;entryDy=0;entryPerimeter=0;endArrow=none;endFill=0;shape=link;" edge="1" parent="WIyWlLk6GJQsqaUBKTNV-1" source="eHkrq_CjXB_8C5PsphUJ-136" target="eHkrq_CjXB_8C5PsphUJ-23">
          <mxGeometry relative="1" as="geometry" />
        </mxCell>
        <mxCell id="eHkrq_CjXB_8C5PsphUJ-140" value="ADOPTS" style="rhombus;whiteSpace=wrap;html=1;fillColor=#ffe6cc;strokeColor=#d79b00;" vertex="1" parent="WIyWlLk6GJQsqaUBKTNV-1">
          <mxGeometry x="40" y="165" width="80" height="80" as="geometry" />
        </mxCell>
        <mxCell id="eHkrq_CjXB_8C5PsphUJ-144" style="edgeStyle=orthogonalEdgeStyle;rounded=0;orthogonalLoop=1;jettySize=auto;html=1;exitX=0;exitY=0.5;exitDx=0;exitDy=0;entryX=0.359;entryY=1.009;entryDx=0;entryDy=0;entryPerimeter=0;endArrow=none;endFill=0;shape=link;" edge="1" parent="WIyWlLk6GJQsqaUBKTNV-1" source="eHkrq_CjXB_8C5PsphUJ-142" target="eHkrq_CjXB_8C5PsphUJ-37">
          <mxGeometry relative="1" as="geometry" />
        </mxCell>
        <mxCell id="eHkrq_CjXB_8C5PsphUJ-142" value="CREATES" style="rhombus;whiteSpace=wrap;html=1;fillColor=#ffe6cc;strokeColor=#d79b00;" vertex="1" parent="WIyWlLk6GJQsqaUBKTNV-1">
          <mxGeometry x="-140" y="750" width="80" height="80" as="geometry" />
        </mxCell>
        <mxCell id="eHkrq_CjXB_8C5PsphUJ-146" style="edgeStyle=orthogonalEdgeStyle;rounded=0;orthogonalLoop=1;jettySize=auto;html=1;exitX=0;exitY=0.25;exitDx=0;exitDy=0;" edge="1" parent="WIyWlLk6GJQsqaUBKTNV-1" source="eHkrq_CjXB_8C5PsphUJ-145">
          <mxGeometry relative="1" as="geometry">
            <mxPoint x="270" y="1295.157894736842" as="targetPoint" />
          </mxGeometry>
        </mxCell>
        <mxCell id="eHkrq_CjXB_8C5PsphUJ-147" style="edgeStyle=orthogonalEdgeStyle;rounded=0;orthogonalLoop=1;jettySize=auto;html=1;exitX=0;exitY=0.75;exitDx=0;exitDy=0;" edge="1" parent="WIyWlLk6GJQsqaUBKTNV-1" source="eHkrq_CjXB_8C5PsphUJ-145">
          <mxGeometry relative="1" as="geometry">
            <mxPoint x="170" y="1324.6315789473688" as="targetPoint" />
          </mxGeometry>
        </mxCell>
        <mxCell id="eHkrq_CjXB_8C5PsphUJ-149" style="edgeStyle=orthogonalEdgeStyle;rounded=0;orthogonalLoop=1;jettySize=auto;html=1;exitX=0;exitY=1;exitDx=0;exitDy=0;" edge="1" parent="WIyWlLk6GJQsqaUBKTNV-1" source="eHkrq_CjXB_8C5PsphUJ-145">
          <mxGeometry relative="1" as="geometry">
            <mxPoint x="270" y="1400" as="targetPoint" />
          </mxGeometry>
        </mxCell>
        <mxCell id="eHkrq_CjXB_8C5PsphUJ-150" style="edgeStyle=orthogonalEdgeStyle;rounded=0;orthogonalLoop=1;jettySize=auto;html=1;exitX=0.25;exitY=1;exitDx=0;exitDy=0;" edge="1" parent="WIyWlLk6GJQsqaUBKTNV-1" source="eHkrq_CjXB_8C5PsphUJ-145">
          <mxGeometry relative="1" as="geometry">
            <mxPoint x="333.8421052631579" y="1450" as="targetPoint" />
          </mxGeometry>
        </mxCell>
        <mxCell id="eHkrq_CjXB_8C5PsphUJ-151" style="edgeStyle=orthogonalEdgeStyle;rounded=0;orthogonalLoop=1;jettySize=auto;html=1;exitX=0.75;exitY=1;exitDx=0;exitDy=0;" edge="1" parent="WIyWlLk6GJQsqaUBKTNV-1" source="eHkrq_CjXB_8C5PsphUJ-145">
          <mxGeometry relative="1" as="geometry">
            <mxPoint x="393.8421052631579" y="1370" as="targetPoint" />
          </mxGeometry>
        </mxCell>
        <mxCell id="eHkrq_CjXB_8C5PsphUJ-152" style="edgeStyle=orthogonalEdgeStyle;rounded=0;orthogonalLoop=1;jettySize=auto;html=1;exitX=1;exitY=1;exitDx=0;exitDy=0;" edge="1" parent="WIyWlLk6GJQsqaUBKTNV-1" source="eHkrq_CjXB_8C5PsphUJ-145">
          <mxGeometry relative="1" as="geometry">
            <mxPoint x="480" y="1380" as="targetPoint" />
          </mxGeometry>
        </mxCell>
        <mxCell id="eHkrq_CjXB_8C5PsphUJ-153" style="edgeStyle=orthogonalEdgeStyle;rounded=0;orthogonalLoop=1;jettySize=auto;html=1;exitX=1;exitY=0.5;exitDx=0;exitDy=0;" edge="1" parent="WIyWlLk6GJQsqaUBKTNV-1" source="eHkrq_CjXB_8C5PsphUJ-145">
          <mxGeometry relative="1" as="geometry">
            <mxPoint x="470" y="1309.8947368421054" as="targetPoint" />
          </mxGeometry>
        </mxCell>
        <mxCell id="eHkrq_CjXB_8C5PsphUJ-145" value="TRAINING" style="rounded=0;whiteSpace=wrap;html=1;fillColor=#d5e8d4;strokeColor=#82b366;" vertex="1" parent="WIyWlLk6GJQsqaUBKTNV-1">
          <mxGeometry x="304" y="1280" width="120" height="60" as="geometry" />
        </mxCell>
        <mxCell id="eHkrq_CjXB_8C5PsphUJ-154" value="&lt;u&gt;session_id&lt;/u&gt;" style="ellipse;whiteSpace=wrap;html=1;aspect=fixed;fillColor=#e1d5e7;strokeColor=#9673a6;" vertex="1" parent="WIyWlLk6GJQsqaUBKTNV-1">
          <mxGeometry x="210" y="1240" width="80" height="80" as="geometry" />
        </mxCell>
        <mxCell id="eHkrq_CjXB_8C5PsphUJ-155" value="pet_id" style="ellipse;whiteSpace=wrap;html=1;aspect=fixed;fillColor=#dae8fc;strokeColor=#6c8ebf;" vertex="1" parent="WIyWlLk6GJQsqaUBKTNV-1">
          <mxGeometry x="130" y="1280" width="80" height="80" as="geometry" />
        </mxCell>
        <mxCell id="eHkrq_CjXB_8C5PsphUJ-156" value="staff_id" style="ellipse;whiteSpace=wrap;html=1;aspect=fixed;fillColor=#dae8fc;strokeColor=#6c8ebf;" vertex="1" parent="WIyWlLk6GJQsqaUBKTNV-1">
          <mxGeometry x="224" y="1370" width="80" height="80" as="geometry" />
        </mxCell>
        <mxCell id="eHkrq_CjXB_8C5PsphUJ-157" value="shelter_id" style="ellipse;whiteSpace=wrap;html=1;aspect=fixed;fillColor=#dae8fc;strokeColor=#6c8ebf;" vertex="1" parent="WIyWlLk6GJQsqaUBKTNV-1">
          <mxGeometry x="300" y="1430" width="80" height="80" as="geometry" />
        </mxCell>
        <mxCell id="eHkrq_CjXB_8C5PsphUJ-158" value="date" style="ellipse;whiteSpace=wrap;html=1;aspect=fixed;fillColor=#dae8fc;strokeColor=#6c8ebf;" vertex="1" parent="WIyWlLk6GJQsqaUBKTNV-1">
          <mxGeometry x="350" y="1350" width="80" height="80" as="geometry" />
        </mxCell>
        <mxCell id="eHkrq_CjXB_8C5PsphUJ-159" value="time" style="ellipse;whiteSpace=wrap;html=1;aspect=fixed;fillColor=#dae8fc;strokeColor=#6c8ebf;" vertex="1" parent="WIyWlLk6GJQsqaUBKTNV-1">
          <mxGeometry x="450" y="1360" width="80" height="80" as="geometry" />
        </mxCell>
        <mxCell id="eHkrq_CjXB_8C5PsphUJ-160" value="description" style="ellipse;whiteSpace=wrap;html=1;aspect=fixed;fillColor=#dae8fc;strokeColor=#6c8ebf;" vertex="1" parent="WIyWlLk6GJQsqaUBKTNV-1">
          <mxGeometry x="440" y="1270" width="80" height="80" as="geometry" />
        </mxCell>
        <mxCell id="eHkrq_CjXB_8C5PsphUJ-163" style="edgeStyle=orthogonalEdgeStyle;rounded=0;orthogonalLoop=1;jettySize=auto;html=1;exitX=0.5;exitY=1;exitDx=0;exitDy=0;entryX=0.5;entryY=0;entryDx=0;entryDy=0;endArrow=none;endFill=0;shape=link;" edge="1" parent="WIyWlLk6GJQsqaUBKTNV-1" source="eHkrq_CjXB_8C5PsphUJ-161" target="eHkrq_CjXB_8C5PsphUJ-145">
          <mxGeometry relative="1" as="geometry" />
        </mxCell>
        <mxCell id="eHkrq_CjXB_8C5PsphUJ-161" value="LEADS" style="rhombus;whiteSpace=wrap;html=1;fillColor=#ffe6cc;strokeColor=#d79b00;" vertex="1" parent="WIyWlLk6GJQsqaUBKTNV-1">
          <mxGeometry x="324" y="1145" width="80" height="80" as="geometry" />
        </mxCell>
        <mxCell id="eHkrq_CjXB_8C5PsphUJ-166" value="1" style="text;html=1;align=center;verticalAlign=middle;whiteSpace=wrap;rounded=0;" vertex="1" parent="WIyWlLk6GJQsqaUBKTNV-1">
          <mxGeometry x="-120" y="120" width="60" height="30" as="geometry" />
        </mxCell>
        <mxCell id="eHkrq_CjXB_8C5PsphUJ-167" value="1" style="text;html=1;align=center;verticalAlign=middle;whiteSpace=wrap;rounded=0;" vertex="1" parent="WIyWlLk6GJQsqaUBKTNV-1">
          <mxGeometry x="-130" y="320" width="60" height="30" as="geometry" />
        </mxCell>
        <mxCell id="eHkrq_CjXB_8C5PsphUJ-169" value="1" style="text;html=1;align=center;verticalAlign=middle;whiteSpace=wrap;rounded=0;" vertex="1" parent="WIyWlLk6GJQsqaUBKTNV-1">
          <mxGeometry x="-55" y="115" width="60" height="30" as="geometry" />
        </mxCell>
        <mxCell id="eHkrq_CjXB_8C5PsphUJ-170" value="N" style="text;html=1;align=center;verticalAlign=middle;whiteSpace=wrap;rounded=0;" vertex="1" parent="WIyWlLk6GJQsqaUBKTNV-1">
          <mxGeometry x="244" y="115" width="60" height="30" as="geometry" />
        </mxCell>
        <mxCell id="eHkrq_CjXB_8C5PsphUJ-171" value="N" style="text;html=1;align=center;verticalAlign=middle;whiteSpace=wrap;rounded=0;" vertex="1" parent="WIyWlLk6GJQsqaUBKTNV-1">
          <mxGeometry x="310" y="110" width="60" height="30" as="geometry" />
        </mxCell>
        <mxCell id="eHkrq_CjXB_8C5PsphUJ-172" value="1" style="text;html=1;align=center;verticalAlign=middle;whiteSpace=wrap;rounded=0;" vertex="1" parent="WIyWlLk6GJQsqaUBKTNV-1">
          <mxGeometry x="170" y="300" width="60" height="30" as="geometry" />
        </mxCell>
        <mxCell id="eHkrq_CjXB_8C5PsphUJ-173" value="1" style="text;html=1;align=center;verticalAlign=middle;whiteSpace=wrap;rounded=0;" vertex="1" parent="WIyWlLk6GJQsqaUBKTNV-1">
          <mxGeometry x="329" y="285" width="60" height="30" as="geometry" />
        </mxCell>
        <mxCell id="eHkrq_CjXB_8C5PsphUJ-174" value="N" style="text;html=1;align=center;verticalAlign=middle;whiteSpace=wrap;rounded=0;" vertex="1" parent="WIyWlLk6GJQsqaUBKTNV-1">
          <mxGeometry x="560" y="290" width="60" height="30" as="geometry" />
        </mxCell>
        <mxCell id="eHkrq_CjXB_8C5PsphUJ-175" value="1" style="text;html=1;align=center;verticalAlign=middle;whiteSpace=wrap;rounded=0;" vertex="1" parent="WIyWlLk6GJQsqaUBKTNV-1">
          <mxGeometry x="170" y="395" width="60" height="30" as="geometry" />
        </mxCell>
        <mxCell id="eHkrq_CjXB_8C5PsphUJ-176" value="N" style="text;html=1;align=center;verticalAlign=middle;whiteSpace=wrap;rounded=0;" vertex="1" parent="WIyWlLk6GJQsqaUBKTNV-1">
          <mxGeometry x="250" y="605" width="60" height="30" as="geometry" />
        </mxCell>
        <mxCell id="eHkrq_CjXB_8C5PsphUJ-177" value="1" style="text;html=1;align=center;verticalAlign=middle;whiteSpace=wrap;rounded=0;" vertex="1" parent="WIyWlLk6GJQsqaUBKTNV-1">
          <mxGeometry x="319" y="1055" width="60" height="30" as="geometry" />
        </mxCell>
        <mxCell id="eHkrq_CjXB_8C5PsphUJ-178" value="N" style="text;html=1;align=center;verticalAlign=middle;whiteSpace=wrap;rounded=0;" vertex="1" parent="WIyWlLk6GJQsqaUBKTNV-1">
          <mxGeometry x="310" y="1250" width="60" height="30" as="geometry" />
        </mxCell>
        <mxCell id="eHkrq_CjXB_8C5PsphUJ-179" value="1" style="text;html=1;align=center;verticalAlign=middle;whiteSpace=wrap;rounded=0;" vertex="1" parent="WIyWlLk6GJQsqaUBKTNV-1">
          <mxGeometry x="-20" y="890" width="60" height="30" as="geometry" />
        </mxCell>
        <mxCell id="eHkrq_CjXB_8C5PsphUJ-180" value="N" style="text;html=1;align=center;verticalAlign=middle;whiteSpace=wrap;rounded=0;" vertex="1" parent="WIyWlLk6GJQsqaUBKTNV-1">
          <mxGeometry x="-250" y="620" width="60" height="30" as="geometry" />
        </mxCell>
      </root>
    </mxGraphModel>
  </diagram>
</mxfile>
